<svg xmlns="http://www.w3.org/2000/svg" width="39" height="29"><path fill="#BEA9D7" fill-rule="evenodd" d="M37.598 23.226s1.033.04 1.033.911-1.033.957-1.033.957c-2.499 0-2.645 2.949-6.11 2.949-3.471 0-3.608-2.949-6.11-2.949-2.504 0-2.639 2.949-6.112 2.949-3.47 0-3.608-2.949-6.11-2.949-2.5 0-2.645 2.949-6.111 2.949-3.471 0-3.609-2.949-6.111-2.949a.934.934 0 110-1.868c3.47 0 3.608 2.949 6.11 2.949 2.5 0 2.646-2.949 6.112-2.949 3.47 0 3.607 2.949 6.11 2.949 2.504 0 2.638-2.949 6.111-2.949 3.47 0 3.608 2.949 6.11 2.949 2.5 0 2.646-2.949 6.111-2.949zm0-7.742s1.033.04 1.033.911-1.033.958-1.033.958c-2.499 0-2.645 2.948-6.11 2.948-3.471 0-3.608-2.948-6.11-2.948-2.504 0-2.639 2.948-6.112 2.948-3.47 0-3.608-2.948-6.11-2.948-2.5 0-2.645 2.948-6.111 2.948-3.471 0-3.609-2.948-6.111-2.948a.934.934 0 110-1.869c3.47 0 3.608 2.949 6.11 2.949 2.5 0 2.646-2.949 6.112-2.949 3.47 0 3.607 2.949 6.11 2.949 2.504 0 2.638-2.949 6.111-2.949 3.47 0 3.608 2.949 6.11 2.949 2.5 0 2.646-2.949 6.111-2.949zm0-7.742s1.033.04 1.033.911-1.033.957-1.033.957c-2.499 0-2.645 2.949-6.11 2.949-3.471 0-3.608-2.949-6.11-2.949-2.504 0-2.639 2.949-6.112 2.949-3.47 0-3.608-2.949-6.11-2.949-2.5 0-2.645 2.949-6.111 2.949-3.471 0-3.609-2.949-6.111-2.949a.934.934 0 110-1.868c3.47 0 3.608 2.948 6.11 2.948 2.5 0 2.646-2.948 6.112-2.948 3.47 0 3.607 2.948 6.11 2.948 2.504 0 2.638-2.948 6.111-2.948 3.47 0 3.608 2.948 6.11 2.948 2.5 0 2.646-2.948 6.111-2.948zm0-7.742s1.033.04 1.033.911-1.033.957-1.033.957c-2.499 0-2.645 2.949-6.11 2.949-3.471 0-3.608-2.949-6.11-2.949-2.504 0-2.639 2.949-6.112 2.949-3.47 0-3.608-2.949-6.11-2.949-2.5 0-2.645 2.949-6.111 2.949-3.471 0-3.609-2.949-6.111-2.949A.934.934 0 11.934 0c3.47 0 3.608 2.948 6.11 2.948C9.545 2.948 9.69 0 13.157 0c3.47 0 3.607 2.948 6.11 2.948S21.904 0 25.377 0c3.47 0 3.608 2.948 6.11 2.948 2.5 0 2.646-2.948 6.111-2.948z"/></svg>