<svg xmlns="http://www.w3.org/2000/svg" width="39" height="31"><path fill="#EF6697" fill-rule="evenodd" d="M37.236 0c.808 0 1.464.659 1.464 1.47v27.96c0 .811-.656 1.47-1.464 1.47H1.464A1.468 1.468 0 010 29.43V1.47C0 .658.657 0 1.464 0h35.772zm-.081 1.551H1.545V29.35h35.61V1.55zM6 4.5c.663 0 1.2.52 1.2 1.162v19.876c0 .642-.537 1.162-1.2 1.162-.663 0-1.2-.52-1.2-1.162V5.662C4.8 5.02 5.337 4.5 6 4.5zm5.4 0c.663 0 1.2.52 1.2 1.162v19.876c0 .642-.537 1.162-1.2 1.162-.663 0-1.2-.52-1.2-1.162V5.662c0-.642.537-1.162 1.2-1.162zm5.4 0c.663 0 1.2.52 1.2 1.162v19.876c0 .642-.537 1.162-1.2 1.162-.663 0-1.2-.52-1.2-1.162V5.662c0-.642.537-1.162 1.2-1.162zm5.4 0c.663 0 1.2.52 1.2 1.162v19.876c0 .642-.537 1.162-1.2 1.162-.663 0-1.2-.52-1.2-1.162V5.662c0-.642.537-1.162 1.2-1.162zm5.4 0c.663 0 1.2.52 1.2 1.162v19.876c0 .642-.537 1.162-1.2 1.162-.663 0-1.2-.52-1.2-1.162V5.662c0-.642.537-1.162 1.2-1.162zm5.4 0c.663 0 1.2.52 1.2 1.162v19.876c0 .642-.537 1.162-1.2 1.162-.663 0-1.2-.52-1.2-1.162V5.662c0-.642.537-1.162 1.2-1.162z"/></svg>