<svg xmlns="http://www.w3.org/2000/svg" width="39" height="37"><path fill="#F7E568" fill-rule="evenodd" d="M.119 31.874c.4-.766 1.34-.169 1.67.145 1.502 1.423 3.279 2.487 5.382 2.487 2.103 0 4.063-.908 5.38-2.487a.96.96 0 01.738-.34.96.96 0 01.737.34c1.316 1.58 3.277 2.487 5.38 2.487 2.103 0 4.063-.908 5.38-2.487a.96.96 0 01.737-.34.96.96 0 01.737.34c1.317 1.58 3.278 2.487 5.382 2.487 2.102 0 4.063-.908 5.38-2.487a.972.972 0 011.322-.145.87.87 0 01.152 1.261c-1.677 2.012-4.175 3.165-6.854 3.165-2.312 0-4.49-.858-6.119-2.385-1.63 1.526-3.806 2.385-6.117 2.385s-4.488-.858-6.118-2.385C11.658 35.441 9.482 36.3 7.17 36.3c-2.312 0-4.436-.91-6.118-2.385-.58-.508-1.351-1.245-.934-2.041zm0-7.8c.4-.766 1.34-.169 1.67.145 1.502 1.423 3.279 2.487 5.382 2.487 2.103 0 4.063-.907 5.38-2.487a.96.96 0 01.738-.34.96.96 0 01.737.34c1.316 1.58 3.277 2.487 5.38 2.487 2.103 0 4.063-.907 5.38-2.487a.96.96 0 01.737-.34.96.96 0 01.737.34c1.317 1.58 3.278 2.487 5.382 2.487 2.102 0 4.063-.907 5.38-2.487a.972.972 0 011.322-.145.87.87 0 01.152 1.261c-1.677 2.012-4.175 3.165-6.854 3.165-2.312 0-4.49-.858-6.119-2.385-1.63 1.526-3.806 2.385-6.117 2.385s-4.488-.858-6.118-2.385C11.658 27.641 9.482 28.5 7.17 28.5c-2.312 0-4.436-.91-6.118-2.385-.58-.508-1.351-1.245-.934-2.04zm0-7.8c.4-.766 1.34-.169 1.67.145 1.502 1.423 3.279 2.487 5.382 2.487 2.103 0 4.063-.907 5.38-2.487a.96.96 0 01.738-.34.96.96 0 01.737.34c1.316 1.58 3.277 2.487 5.38 2.487 2.103 0 4.063-.907 5.38-2.487a.96.96 0 01.737-.34.96.96 0 01.737.34c1.317 1.58 3.278 2.487 5.382 2.487 2.102 0 4.063-.907 5.38-2.487a.972.972 0 011.322-.145.87.87 0 01.152 1.261c-1.677 2.012-4.175 3.165-6.854 3.165-2.312 0-4.49-.858-6.119-2.385-1.63 1.526-3.806 2.385-6.117 2.385s-4.488-.858-6.118-2.385C11.658 19.841 9.482 20.7 7.17 20.7c-2.312 0-4.436-.91-6.118-2.385-.58-.508-1.351-1.245-.934-2.04zM20.882 0c3.016 0 5.876 1.106 8.05 3.114a.83.83 0 01.128 1.09l-.387.56a.904.904 0 01-.746.382.919.919 0 01-.358-.072 5.37 5.37 0 00-2.093-.42l-.095.002a5.25 5.25 0 00-.903.095c-1.424.278-1.98 1.23-2.184 1.772-.322.852-.19 1.774.361 2.528a3.054 3.054 0 002.464 1.232h12.687c.493 0 .894.384.894.856 0 .477-.401.861-.894.861H25.12c-1.56 0-3.03-.734-3.928-1.963-.891-1.219-1.103-2.713-.58-4.099.567-1.499 1.846-2.545 3.51-2.87.21-.04.424-.072.635-.094a.25.25 0 00.225-.204.242.242 0 00-.148-.26 10.109 10.109 0 00-3.951-.793c-3.959 0-7.513 2.26-9.055 5.756C10.615 10.223 7.791 12 4.632 12H.894C.4 12 0 11.616 0 11.144c0-.477.401-.86.894-.86h3.738c2.438 0 4.615-1.366 5.547-3.48C12.002 2.671 16.203 0 20.882 0z"/></svg>